<?xml version="1.0" encoding="UTF-8" standalone="no"?>
<svg
   xmlns:dc="http://purl.org/dc/elements/1.1/"
   xmlns:cc="http://creativecommons.org/ns#"
   xmlns:rdf="http://www.w3.org/1999/02/22-rdf-syntax-ns#"
   xmlns:svg="http://www.w3.org/2000/svg"
   xmlns="http://www.w3.org/2000/svg"
   xmlns:sodipodi="http://sodipodi.sourceforge.net/DTD/sodipodi-0.dtd"
   xmlns:inkscape="http://www.inkscape.org/namespaces/inkscape"
   data-name="Layer 1"
   viewBox="0 0 100 100"
   x="0px"
   y="0px"
   version="1.1"
   id="svg3765"
   sodipodi:docname="bubble.svg"
   inkscape:version="0.92.2 (5c3e80d, 2017-08-06)">
  <metadata
     id="metadata3771">
    <rdf:RDF>
      <cc:Work
         rdf:about="">
        <dc:format>image/svg+xml</dc:format>
        <dc:type
           rdf:resource="http://purl.org/dc/dcmitype/StillImage" />
      </cc:Work>
    </rdf:RDF>
  </metadata>
  <defs
     id="defs3769" />
  <sodipodi:namedview
     pagecolor="#ffffff"
     bordercolor="#666666"
     borderopacity="1"
     objecttolerance="10"
     gridtolerance="10"
     guidetolerance="10"
     inkscape:pageopacity="0"
     inkscape:pageshadow="2"
     inkscape:window-width="1280"
     inkscape:window-height="800"
     id="namedview3767"
     showgrid="false"
     inkscape:zoom="5.62857"
     inkscape:cx="51.004127"
     inkscape:cy="51.030278"
     inkscape:window-x="482"
     inkscape:window-y="917"
     inkscape:window-maximized="0"
     inkscape:current-layer="svg3765" />
  <title
     id="title3755">116all</title>
  <path
     d="M 83.538778,45.538199 A 30.767541,30.767541 0 0 0 71.691096,23.236682 34.600614,34.600614 0 0 0 44.519042,16.449607 C 27.729547,19.276895 15.406691,34.086496 16.452075,50.210747 a 30.712104,30.712104 0 0 0 10.081617,20.820557 20.638407,20.638407 0 0 1 -4.284489,4.751744 3.0569552,3.0569552 0 0 0 -0.926591,3.381658 3.1678292,3.1678292 0 0 0 2.946082,2.059089 h 0.388058 c 3.872672,0 9.590604,-0.791958 13.890931,-3.167829 a 35.23418,35.23418 0 0 0 17.177555,1.251292 C 72.388018,76.400775 84.60792,61.567415 83.538778,45.538199 Z M 55.178786,76.186947 A 32.010914,32.010914 0 0 1 38.911984,74.82478 1.5839146,1.5839146 0 0 0 37.565657,74.959412 c -3.635084,2.177883 -9.178785,3.112392 -13.122733,3.120313 A 24.273491,24.273491 0 0 0 29.986625,71.577755 1.5839146,1.5839146 0 0 0 29.654003,69.526586 27.64723,27.64723 0 0 1 19.611985,50.004838 C 18.669556,35.488261 29.836153,22.120022 45.033814,19.569919 a 31.424865,31.424865 0 0 1 24.685309,6.161428 27.63931,27.63931 0 0 1 10.659745,20.02068 C 81.345056,60.18149 70.273493,73.549729 55.178786,76.186947 Z"
     id="path3757"
     inkscape:connector-curvature="0"
     style="stroke-width:0.79195726" />
  <circle
     cx="50.031063"
     cy="48.159576"
     id="circle3759"
     r="4.9022155"
     style="stroke-width:0.79195726" />
  <circle
     cx="34.84132"
     cy="48.159576"
     id="circle3761"
     r="4.9022155"
     style="stroke-width:0.79195726" />
  <circle
     cx="64.896103"
     cy="48.159576"
     id="circle3763"
     r="4.9022155"
     style="stroke-width:0.79195726" />
</svg>
