<?xml version="1.0" encoding="UTF-8" standalone="no"?>
<svg
   xmlns:dc="http://purl.org/dc/elements/1.1/"
   xmlns:cc="http://creativecommons.org/ns#"
   xmlns:rdf="http://www.w3.org/1999/02/22-rdf-syntax-ns#"
   xmlns:svg="http://www.w3.org/2000/svg"
   xmlns="http://www.w3.org/2000/svg"
   xmlns:sodipodi="http://sodipodi.sourceforge.net/DTD/sodipodi-0.dtd"
   xmlns:inkscape="http://www.inkscape.org/namespaces/inkscape"
   data-name="Layer 1"
   viewBox="0 0 100 100"
   x="0px"
   y="0px"
   version="1.1"
   id="svg62"
   sodipodi:docname="environment2.svg"
   inkscape:version="0.92.2 (5c3e80d, 2017-08-06)">
  <metadata
     id="metadata68">
    <rdf:RDF>
      <cc:Work
         rdf:about="">
        <dc:format>image/svg+xml</dc:format>
        <dc:type
           rdf:resource="http://purl.org/dc/dcmitype/StillImage" />
      </cc:Work>
    </rdf:RDF>
  </metadata>
  <defs
     id="defs66" />
  <sodipodi:namedview
     pagecolor="#ffffff"
     bordercolor="#666666"
     borderopacity="1"
     objecttolerance="10"
     gridtolerance="10"
     guidetolerance="10"
     inkscape:pageopacity="0"
     inkscape:pageshadow="2"
     inkscape:window-width="3000"
     inkscape:window-height="1875"
     id="namedview64"
     showgrid="false"
     inkscape:zoom="15.92"
     inkscape:cx="48.108298"
     inkscape:cy="51.12687"
     inkscape:window-x="-13"
     inkscape:window-y="-13"
     inkscape:window-maximized="1"
     inkscape:current-layer="svg62" />
  <title
     id="title54">118all</title>
  <path
     d="m 18.015324,63.890031 a 4.5159253,4.5159253 0 0 0 1.921978,2.817937 l 13.121473,8.706703 1.445096,7.550628 a 1.4450961,1.4450961 0 0 0 1.770241,1.141625 l 11.329553,-2.312153 a 1.4450961,1.4450961 0 0 0 1.105499,-1.784694 l -4.335288,-16.41629 a 4.4653469,4.4653469 0 0 0 -1.495675,-2.283253 l -9.010174,-7.738489 a 3.9234358,3.9234358 0 0 0 -5.49859,5.570846 l 3.330946,3.778925 -1.033243,0.404627 -5.440788,-4.552052 -2.398858,-10.21683 a 4.0101416,4.0101416 0 0 0 -4.81217,-2.962446 3.9162103,3.9162103 0 0 0 -2.962447,4.638758 z m 0.722548,-15.484205 a 1.1488514,1.1488514 0 0 1 0.252892,0 1.0765966,1.0765966 0 0 1 1.05492,0.838156 l 2.500016,10.66481 a 1.4450961,1.4450961 0 0 0 0.476882,0.780351 l 6.45958,5.411885 a 1.4450961,1.4450961 0 0 0 1.445096,0.238441 l 3.750024,-1.445096 a 1.4450961,1.4450961 0 0 0 0.556361,-2.297703 l -4.696562,-5.368533 a 1.0332437,1.0332437 0 0 1 1.445096,-1.445095 l 9.024625,7.724039 a 1.6257332,1.6257332 0 0 1 0.549137,0.816479 l 3.966788,14.920616 -8.43936,1.741341 -1.300586,-6.712471 A 1.4450961,1.4450961 0 0 0 35.161388,73.348184 L 21.541358,64.294657 A 1.640184,1.640184 0 0 1 20.81881,63.268639 L 17.870815,49.626933 a 1.0332437,1.0332437 0 0 1 0.830929,-1.221107 z"
     id="path56"
     inkscape:connector-curvature="0"
     style="stroke-width:0.72254807;fill:#ffffff" />
  <path
     d="m 71.498329,53.810485 v 0 a 3.9378868,3.9378868 0 0 0 -5.33963,-0.216763 l -8.930693,7.651783 a 4.5303761,4.5303761 0 0 0 -1.546253,2.333829 L 51.346465,79.97395 a 1.4450961,1.4450961 0 0 0 1.054919,1.820821 l 11.329554,2.312153 a 1.4450961,1.4450961 0 0 0 1.712439,-1.141625 l 1.445095,-7.550628 13.179276,-8.706703 a 4.5159253,4.5159253 0 0 0 1.929205,-2.817937 l 2.969672,-13.648932 a 3.9234358,3.9234358 0 0 0 -3.027477,-4.65321 3.9956906,3.9956906 0 0 0 -4.761592,2.969672 l -2.398859,10.224054 -5.433561,4.552054 -1.033244,-0.404627 3.330947,-3.778926 a 3.9378868,3.9378868 0 0 0 -0.14451,-5.339631 z m -2.030359,3.417652 -4.696562,5.325179 a 1.4450961,1.4450961 0 0 0 0.556361,2.297704 l 3.750024,1.445096 a 1.4450961,1.4450961 0 0 0 1.445096,-0.238442 l 6.459579,-5.411884 a 1.4450961,1.4450961 0 0 0 0.476883,-0.736998 l 2.514467,-10.700937 a 1.098273,1.098273 0 0 1 1.365615,-0.794803 1.0187927,1.0187927 0 0 1 0.773127,1.206655 l -2.947996,13.656158 a 1.640184,1.640184 0 0 1 -0.722549,1.026018 l -13.605579,9.039075 a 1.4450961,1.4450961 0 0 0 -0.621391,0.924862 l -1.300587,6.712472 -8.432135,-1.734116 3.959563,-14.89894 a 1.6907623,1.6907623 0 0 1 0.599715,-0.874283 l 8.981272,-7.687911 a 1.0332437,1.0332437 0 0 1 1.394517,0.04336 v 0 a 1.0332437,1.0332437 0 0 1 0.05058,1.401743 z"
     id="path58"
     inkscape:connector-curvature="0"
     style="stroke-width:0.72254807;fill:#ffffff" />
  <path
     d="m 50.002525,15.869488 -14.935067,15.469754 -0.05781,0.06503 a 13.880148,13.880148 0 0 0 -3.186437,9.010174 13.851246,13.851246 0 0 0 3.186437,9.010173 10.397466,10.397466 0 0 0 7.948029,3.851182 9.9639371,9.9639371 0 0 0 5.41911,-1.611283 v 9.291968 h 2.890192 V 51.44775 a 9.9928395,9.9928395 0 0 0 5.780384,1.849723 10.419143,10.419143 0 0 0 7.948029,-3.851181 14.400382,14.400382 0 0 0 0,-18.020348 z m 1.271685,5.484141 4.263033,4.414767 -4.263033,4.263034 z m -2.890191,8.164792 -3.836732,-3.83673 3.836732,-3.974015 z m 0,4.089622 v 8.403233 l -9.942262,-9.978388 4.125749,-4.277484 z m 2.890191,8.909017 v -8.518842 l 0.05781,0.05781 6.213913,-6.213913 4.125749,4.277484 z m -8.309303,7.875774 a 7.5578525,7.5578525 0 0 1 -5.780384,-2.832389 10.961054,10.961054 0 0 1 -2.500016,-7.131549 11.213945,11.213945 0 0 1 1.80637,-6.199462 l 11.900366,11.864238 v 1.828048 a 7.4494702,7.4494702 0 0 1 -5.41911,2.471114 z m 19.833944,-2.832389 a 7.2760587,7.2760587 0 0 1 -11.524641,0 V 46.599456 L 63.557527,34.31614 a 11.459612,11.459612 0 0 1 -0.758676,13.23708 z"
     id="path60"
     inkscape:connector-curvature="0"
     style="stroke-width:0.72254807;fill:#ffffff" />
</svg>
