<svg xmlns="http://www.w3.org/2000/svg" xmlns:xlink="http://www.w3.org/1999/xlink" version="1.1" x="0px" y="0px" viewBox="0 0 100 100" style="enable-background:new 0 0 100 100;" xml:space="preserve"><g><path d="M44.6,56.3c0-1.1-0.9-1.9-1.9-1.9H18.9c-1.1,0-1.9,0.9-1.9,1.9v12.6h27.6V56.3z"></path><path d="M17,75.9c0,1.1,0.9,1.9,1.9,1.9h2.9c0.1,2.9,2.4,5.2,5.3,5.2c2.9,0,5.2-2.3,5.3-5.2h11.8c0.1,2.9,2.4,5.2,5.3,5.2   s5.2-2.3,5.3-5.2h2.9c1.1,0,1.9-0.9,1.9-1.9v-4.1H17V75.9z M49.4,75.3c1.3,0,2.4,1.1,2.4,2.4s-1.1,2.4-2.4,2.4   c-1.3,0-2.4-1.1-2.4-2.4S48.1,75.3,49.4,75.3z M27,75.3c1.3,0,2.4,1.1,2.4,2.4s-1.1,2.4-2.4,2.4s-2.4-1.1-2.4-2.4   C24.7,76.4,25.7,75.3,27,75.3z"></path><path d="M56.4,17.1c-10.8,1.2-19.6,9.8-21,20.5c-0.6,4.7,0.1,9.1,1.9,13c0.2,0.5,0.7,0.8,1.3,0.8c1,0,1.7-1.1,1.3-2   c-1.3-2.8-1.9-5.9-1.8-9.2c0.3-10.8,8.9-19.8,19.7-20.4c12.2-0.7,22.4,8.9,22.4,21c0,10.1-7.2,18.6-16.7,20.6   c-0.6,0.1-1.1,0.7-1.1,1.4c0,0.9,0.8,1.6,1.7,1.4C74.9,62,83,52.4,83,40.9C83,26.8,70.8,15.6,56.4,17.1z"></path><path d="M65.2,44.9c0-2.8-1.7-4.5-5-5.7c-2.5-0.9-3.6-1.7-3.6-3.2c0-1.4,1.1-2.6,3.2-2.6c1.1,0,2,0.2,2.7,0.5   c0.7,0.3,1.4-0.1,1.7-0.8c0.2-0.7-0.1-1.4-0.8-1.7c-0.9-0.3-2-0.6-3.3-0.6v-1.1c0-0.5-0.4-1-1-1c-0.6,0-1,0.4-1,1V31   c-3.1,0.6-4.9,2.8-4.9,5.4c0,2.3,1.6,4.2,5,5.4c2.6,0.9,3.5,1.8,3.5,3.5c0,1.6-1.2,2.8-3.7,2.8c-1.2,0-2.3-0.3-3.3-0.7   c-0.7-0.3-1.5,0.1-1.7,0.8v0.1c-0.2,0.7,0.1,1.4,0.8,1.6c1.2,0.5,2.7,0.8,4.2,0.8h0.1v1.1c0,0.5,0.4,1,1,1c0.6,0,1-0.4,1-1v-1.3   C63.3,49.8,65.2,47.7,65.2,44.9z"></path><path d="M52.4,56.9h-5v12h12v-5L52.4,56.9z M56.4,65.9h-6v-6h0.8l5.2,5.2V65.9z"></path></g></svg>